<mxfile host="app.diagrams.net" modified="2021-04-01T23:00:14.813Z" agent="5.0 (Macintosh; Intel Mac OS X 11_2_1) AppleWebKit/537.36 (KHTML, like Gecko) Chrome/89.0.4389.82 Safari/537.36" etag="QoDNRS2GaPaFhQg_w9mF" version="14.4.3" type="github">
  <diagram id="R2lEEEUBdFMjLlhIrx00" name="Page-1">
    <mxGraphModel dx="2703" dy="1846" grid="1" gridSize="10" guides="1" tooltips="1" connect="1" arrows="1" fold="1" page="1" pageScale="1" pageWidth="850" pageHeight="1100" math="0" shadow="0" extFonts="Permanent Marker^https://fonts.googleapis.com/css?family=Permanent+Marker">
      <root>
        <mxCell id="0" />
        <mxCell id="1" parent="0" />
        <mxCell id="ZMqYGbDEm_XaeI_KLQOW-178" style="edgeStyle=orthogonalEdgeStyle;rounded=0;orthogonalLoop=1;jettySize=auto;html=1;exitX=0.5;exitY=1;exitDx=0;exitDy=0;entryX=0.5;entryY=0;entryDx=0;entryDy=0;endArrow=none;endFill=0;strokeWidth=1;" edge="1" parent="1" source="ZMqYGbDEm_XaeI_KLQOW-1" target="ZMqYGbDEm_XaeI_KLQOW-90">
          <mxGeometry relative="1" as="geometry" />
        </mxCell>
        <mxCell id="ZMqYGbDEm_XaeI_KLQOW-179" style="edgeStyle=orthogonalEdgeStyle;rounded=0;orthogonalLoop=1;jettySize=auto;html=1;exitX=1;exitY=0.5;exitDx=0;exitDy=0;entryX=0;entryY=0.5;entryDx=0;entryDy=0;endArrow=none;endFill=0;strokeWidth=1;" edge="1" parent="1" source="ZMqYGbDEm_XaeI_KLQOW-1" target="ZMqYGbDEm_XaeI_KLQOW-119">
          <mxGeometry relative="1" as="geometry" />
        </mxCell>
        <mxCell id="ZMqYGbDEm_XaeI_KLQOW-1" value="People" style="rounded=0;whiteSpace=wrap;html=1;" vertex="1" parent="1">
          <mxGeometry x="98.5" y="204.5" width="120" height="60" as="geometry" />
        </mxCell>
        <mxCell id="ZMqYGbDEm_XaeI_KLQOW-18" style="edgeStyle=orthogonalEdgeStyle;rounded=0;orthogonalLoop=1;jettySize=auto;html=1;exitX=0.25;exitY=1;exitDx=0;exitDy=0;entryX=0.5;entryY=0;entryDx=0;entryDy=0;endArrow=none;endFill=0;" edge="1" parent="1" source="ZMqYGbDEm_XaeI_KLQOW-2" target="ZMqYGbDEm_XaeI_KLQOW-17">
          <mxGeometry relative="1" as="geometry" />
        </mxCell>
        <mxCell id="ZMqYGbDEm_XaeI_KLQOW-191" style="edgeStyle=orthogonalEdgeStyle;rounded=0;orthogonalLoop=1;jettySize=auto;html=1;exitX=1;exitY=1;exitDx=0;exitDy=0;entryX=0.5;entryY=0;entryDx=0;entryDy=0;endArrow=none;endFill=0;strokeWidth=1;fontSize=10;fontColor=#007FFF;" edge="1" parent="1" source="ZMqYGbDEm_XaeI_KLQOW-2" target="ZMqYGbDEm_XaeI_KLQOW-129">
          <mxGeometry relative="1" as="geometry" />
        </mxCell>
        <mxCell id="ZMqYGbDEm_XaeI_KLQOW-2" value="Users" style="rounded=0;whiteSpace=wrap;html=1;" vertex="1" parent="1">
          <mxGeometry x="433" y="130" width="120" height="60" as="geometry" />
        </mxCell>
        <mxCell id="ZMqYGbDEm_XaeI_KLQOW-76" style="edgeStyle=orthogonalEdgeStyle;rounded=0;orthogonalLoop=1;jettySize=auto;html=1;exitX=1;exitY=0.5;exitDx=0;exitDy=0;entryX=0;entryY=0.5;entryDx=0;entryDy=0;endArrow=none;endFill=0;strokeWidth=5;" edge="1" parent="1" source="ZMqYGbDEm_XaeI_KLQOW-3" target="ZMqYGbDEm_XaeI_KLQOW-75">
          <mxGeometry relative="1" as="geometry" />
        </mxCell>
        <mxCell id="ZMqYGbDEm_XaeI_KLQOW-115" style="edgeStyle=orthogonalEdgeStyle;rounded=0;orthogonalLoop=1;jettySize=auto;html=1;exitX=0.5;exitY=0;exitDx=0;exitDy=0;entryX=0.5;entryY=1;entryDx=0;entryDy=0;endArrow=none;endFill=0;strokeWidth=5;" edge="1" parent="1" source="ZMqYGbDEm_XaeI_KLQOW-3" target="ZMqYGbDEm_XaeI_KLQOW-114">
          <mxGeometry relative="1" as="geometry" />
        </mxCell>
        <mxCell id="ZMqYGbDEm_XaeI_KLQOW-125" style="edgeStyle=orthogonalEdgeStyle;rounded=0;orthogonalLoop=1;jettySize=auto;html=1;exitX=0.5;exitY=1;exitDx=0;exitDy=0;entryX=0.5;entryY=0;entryDx=0;entryDy=0;endArrow=none;endFill=0;" edge="1" parent="1" source="ZMqYGbDEm_XaeI_KLQOW-3" target="ZMqYGbDEm_XaeI_KLQOW-124">
          <mxGeometry relative="1" as="geometry">
            <Array as="points">
              <mxPoint x="207.12" y="702" />
              <mxPoint x="207.12" y="735" />
              <mxPoint x="167.12" y="735" />
            </Array>
          </mxGeometry>
        </mxCell>
        <mxCell id="ZMqYGbDEm_XaeI_KLQOW-144" style="edgeStyle=orthogonalEdgeStyle;rounded=0;orthogonalLoop=1;jettySize=auto;html=1;exitX=0.75;exitY=1;exitDx=0;exitDy=0;entryX=0.5;entryY=0;entryDx=0;entryDy=0;endArrow=none;endFill=0;" edge="1" parent="1" source="ZMqYGbDEm_XaeI_KLQOW-3" target="ZMqYGbDEm_XaeI_KLQOW-143">
          <mxGeometry relative="1" as="geometry" />
        </mxCell>
        <mxCell id="ZMqYGbDEm_XaeI_KLQOW-3" value="Events" style="rounded=0;whiteSpace=wrap;html=1;" vertex="1" parent="1">
          <mxGeometry x="182.12" y="642" width="120" height="60" as="geometry" />
        </mxCell>
        <mxCell id="ZMqYGbDEm_XaeI_KLQOW-70" style="edgeStyle=orthogonalEdgeStyle;rounded=0;orthogonalLoop=1;jettySize=auto;html=1;exitX=1;exitY=0.5;exitDx=0;exitDy=0;entryX=0;entryY=0.5;entryDx=0;entryDy=0;endArrow=none;endFill=0;" edge="1" parent="1" source="ZMqYGbDEm_XaeI_KLQOW-4" target="ZMqYGbDEm_XaeI_KLQOW-48">
          <mxGeometry relative="1" as="geometry" />
        </mxCell>
        <mxCell id="ZMqYGbDEm_XaeI_KLQOW-74" style="edgeStyle=orthogonalEdgeStyle;rounded=0;orthogonalLoop=1;jettySize=auto;html=1;exitX=0.75;exitY=1;exitDx=0;exitDy=0;entryX=0;entryY=0.5;entryDx=0;entryDy=0;endArrow=none;endFill=0;" edge="1" parent="1" source="ZMqYGbDEm_XaeI_KLQOW-4" target="ZMqYGbDEm_XaeI_KLQOW-72">
          <mxGeometry relative="1" as="geometry" />
        </mxCell>
        <mxCell id="ZMqYGbDEm_XaeI_KLQOW-127" style="edgeStyle=orthogonalEdgeStyle;rounded=0;orthogonalLoop=1;jettySize=auto;html=1;exitX=0.25;exitY=1;exitDx=0;exitDy=0;entryX=1;entryY=0.5;entryDx=0;entryDy=0;endArrow=none;endFill=0;" edge="1" parent="1" source="ZMqYGbDEm_XaeI_KLQOW-4" target="ZMqYGbDEm_XaeI_KLQOW-126">
          <mxGeometry relative="1" as="geometry" />
        </mxCell>
        <mxCell id="ZMqYGbDEm_XaeI_KLQOW-4" value="Places" style="rounded=0;whiteSpace=wrap;html=1;" vertex="1" parent="1">
          <mxGeometry x="473.12" y="643" width="120" height="60" as="geometry" />
        </mxCell>
        <mxCell id="ZMqYGbDEm_XaeI_KLQOW-13" style="edgeStyle=orthogonalEdgeStyle;rounded=0;orthogonalLoop=1;jettySize=auto;html=1;exitX=0.5;exitY=1;exitDx=0;exitDy=0;entryX=0.5;entryY=0;entryDx=0;entryDy=0;endArrow=none;endFill=0;" edge="1" parent="1" target="ZMqYGbDEm_XaeI_KLQOW-12">
          <mxGeometry relative="1" as="geometry">
            <mxPoint x="340.5" y="430" as="sourcePoint" />
          </mxGeometry>
        </mxCell>
        <mxCell id="ZMqYGbDEm_XaeI_KLQOW-128" style="edgeStyle=orthogonalEdgeStyle;rounded=0;orthogonalLoop=1;jettySize=auto;html=1;exitX=1;exitY=0.5;exitDx=0;exitDy=0;entryX=0.5;entryY=1;entryDx=0;entryDy=0;endArrow=none;endFill=0;" edge="1" parent="1" source="ZMqYGbDEm_XaeI_KLQOW-5" target="ZMqYGbDEm_XaeI_KLQOW-17">
          <mxGeometry relative="1" as="geometry" />
        </mxCell>
        <mxCell id="ZMqYGbDEm_XaeI_KLQOW-188" style="edgeStyle=orthogonalEdgeStyle;rounded=0;orthogonalLoop=1;jettySize=auto;html=1;exitX=0.5;exitY=1;exitDx=0;exitDy=0;endArrow=none;endFill=0;strokeWidth=1;fontSize=1;fontColor=#007FFF;" edge="1" parent="1" source="ZMqYGbDEm_XaeI_KLQOW-5" target="ZMqYGbDEm_XaeI_KLQOW-12">
          <mxGeometry relative="1" as="geometry" />
        </mxCell>
        <mxCell id="ZMqYGbDEm_XaeI_KLQOW-5" value="Contacts &amp;amp; Invitees Lists" style="rounded=0;whiteSpace=wrap;html=1;" vertex="1" parent="1">
          <mxGeometry x="280.5" y="338" width="120" height="60" as="geometry" />
        </mxCell>
        <mxCell id="ZMqYGbDEm_XaeI_KLQOW-88" style="edgeStyle=orthogonalEdgeStyle;rounded=0;orthogonalLoop=1;jettySize=auto;html=1;exitX=0.5;exitY=1;exitDx=0;exitDy=0;entryX=0.5;entryY=0;entryDx=0;entryDy=0;endArrow=none;endFill=0;" edge="1" parent="1" source="ZMqYGbDEm_XaeI_KLQOW-12" target="ZMqYGbDEm_XaeI_KLQOW-80">
          <mxGeometry relative="1" as="geometry" />
        </mxCell>
        <mxCell id="ZMqYGbDEm_XaeI_KLQOW-189" style="edgeStyle=orthogonalEdgeStyle;rounded=0;orthogonalLoop=1;jettySize=auto;html=1;exitX=1;exitY=0.5;exitDx=0;exitDy=0;entryX=0;entryY=0.5;entryDx=0;entryDy=0;endArrow=none;endFill=0;strokeWidth=1;fontSize=1;fontColor=#007FFF;" edge="1" parent="1" source="ZMqYGbDEm_XaeI_KLQOW-12" target="ZMqYGbDEm_XaeI_KLQOW-95">
          <mxGeometry relative="1" as="geometry" />
        </mxCell>
        <mxCell id="ZMqYGbDEm_XaeI_KLQOW-12" value="Invited" style="rhombus;whiteSpace=wrap;html=1;" vertex="1" parent="1">
          <mxGeometry x="310.5" y="430" width="60" height="50" as="geometry" />
        </mxCell>
        <mxCell id="ZMqYGbDEm_XaeI_KLQOW-190" style="edgeStyle=orthogonalEdgeStyle;rounded=0;orthogonalLoop=1;jettySize=auto;html=1;exitX=0;exitY=0.5;exitDx=0;exitDy=0;entryX=1;entryY=0.5;entryDx=0;entryDy=0;endArrow=none;endFill=0;strokeWidth=1;fontSize=1;fontColor=#007FFF;" edge="1" parent="1" source="ZMqYGbDEm_XaeI_KLQOW-15" target="ZMqYGbDEm_XaeI_KLQOW-12">
          <mxGeometry relative="1" as="geometry" />
        </mxCell>
        <mxCell id="ZMqYGbDEm_XaeI_KLQOW-15" value="RSVP&#39;ed?" style="ellipse;whiteSpace=wrap;html=1;" vertex="1" parent="1">
          <mxGeometry x="410.12" y="460" width="70" height="40" as="geometry" />
        </mxCell>
        <mxCell id="ZMqYGbDEm_XaeI_KLQOW-17" value="Create" style="rhombus;whiteSpace=wrap;html=1;" vertex="1" parent="1">
          <mxGeometry x="425" y="250" width="77" height="60" as="geometry" />
        </mxCell>
        <mxCell id="ZMqYGbDEm_XaeI_KLQOW-26" style="edgeStyle=orthogonalEdgeStyle;rounded=0;orthogonalLoop=1;jettySize=auto;html=1;exitX=0.5;exitY=1;exitDx=0;exitDy=0;entryX=0;entryY=0.5;entryDx=0;entryDy=0;endArrow=none;endFill=0;" edge="1" parent="1" source="ZMqYGbDEm_XaeI_KLQOW-22" target="ZMqYGbDEm_XaeI_KLQOW-1">
          <mxGeometry relative="1" as="geometry" />
        </mxCell>
        <mxCell id="ZMqYGbDEm_XaeI_KLQOW-22" value="email" style="ellipse;whiteSpace=wrap;html=1;fontStyle=4" vertex="1" parent="1">
          <mxGeometry x="9.5" y="140" width="80" height="50" as="geometry" />
        </mxCell>
        <mxCell id="ZMqYGbDEm_XaeI_KLQOW-27" style="edgeStyle=orthogonalEdgeStyle;rounded=0;orthogonalLoop=1;jettySize=auto;html=1;exitX=0.5;exitY=1;exitDx=0;exitDy=0;entryX=0.5;entryY=0;entryDx=0;entryDy=0;endArrow=none;endFill=0;" edge="1" parent="1" source="ZMqYGbDEm_XaeI_KLQOW-23" target="ZMqYGbDEm_XaeI_KLQOW-1">
          <mxGeometry relative="1" as="geometry" />
        </mxCell>
        <mxCell id="ZMqYGbDEm_XaeI_KLQOW-23" value="name" style="ellipse;whiteSpace=wrap;html=1;" vertex="1" parent="1">
          <mxGeometry x="118.5" y="134.5" width="80" height="50" as="geometry" />
        </mxCell>
        <mxCell id="ZMqYGbDEm_XaeI_KLQOW-28" style="edgeStyle=orthogonalEdgeStyle;rounded=0;orthogonalLoop=1;jettySize=auto;html=1;exitX=0.5;exitY=1;exitDx=0;exitDy=0;entryX=0;entryY=0;entryDx=0;entryDy=0;endArrow=none;endFill=0;" edge="1" parent="1" source="ZMqYGbDEm_XaeI_KLQOW-24" target="ZMqYGbDEm_XaeI_KLQOW-23">
          <mxGeometry relative="1" as="geometry" />
        </mxCell>
        <mxCell id="ZMqYGbDEm_XaeI_KLQOW-24" value="given name" style="ellipse;whiteSpace=wrap;html=1;" vertex="1" parent="1">
          <mxGeometry x="43.5" y="34.5" width="80" height="50" as="geometry" />
        </mxCell>
        <mxCell id="ZMqYGbDEm_XaeI_KLQOW-29" style="edgeStyle=orthogonalEdgeStyle;rounded=0;orthogonalLoop=1;jettySize=auto;html=1;exitX=0.5;exitY=1;exitDx=0;exitDy=0;entryX=1;entryY=0;entryDx=0;entryDy=0;endArrow=none;endFill=0;" edge="1" parent="1" source="ZMqYGbDEm_XaeI_KLQOW-25" target="ZMqYGbDEm_XaeI_KLQOW-23">
          <mxGeometry relative="1" as="geometry" />
        </mxCell>
        <mxCell id="ZMqYGbDEm_XaeI_KLQOW-25" value="family name" style="ellipse;whiteSpace=wrap;html=1;" vertex="1" parent="1">
          <mxGeometry x="193.5" y="34.5" width="80" height="50" as="geometry" />
        </mxCell>
        <mxCell id="ZMqYGbDEm_XaeI_KLQOW-40" style="edgeStyle=orthogonalEdgeStyle;rounded=0;orthogonalLoop=1;jettySize=auto;html=1;exitX=0.5;exitY=1;exitDx=0;exitDy=0;endArrow=none;endFill=0;" edge="1" parent="1" source="ZMqYGbDEm_XaeI_KLQOW-34">
          <mxGeometry relative="1" as="geometry">
            <mxPoint x="448" y="130" as="targetPoint" />
          </mxGeometry>
        </mxCell>
        <mxCell id="ZMqYGbDEm_XaeI_KLQOW-34" value="password" style="ellipse;whiteSpace=wrap;html=1;" vertex="1" parent="1">
          <mxGeometry x="415" y="74" width="67" height="40" as="geometry" />
        </mxCell>
        <mxCell id="ZMqYGbDEm_XaeI_KLQOW-41" style="edgeStyle=orthogonalEdgeStyle;rounded=0;orthogonalLoop=1;jettySize=auto;html=1;exitX=0.5;exitY=1;exitDx=0;exitDy=0;endArrow=none;endFill=0;" edge="1" parent="1" source="ZMqYGbDEm_XaeI_KLQOW-35">
          <mxGeometry relative="1" as="geometry">
            <mxPoint x="523" y="130" as="targetPoint" />
          </mxGeometry>
        </mxCell>
        <mxCell id="ZMqYGbDEm_XaeI_KLQOW-35" value="address" style="ellipse;whiteSpace=wrap;html=1;" vertex="1" parent="1">
          <mxGeometry x="492.12" y="74" width="67" height="40" as="geometry" />
        </mxCell>
        <mxCell id="ZMqYGbDEm_XaeI_KLQOW-36" value="nickname" style="ellipse;whiteSpace=wrap;html=1;" vertex="1" parent="1">
          <mxGeometry x="636" y="90" width="67" height="40" as="geometry" />
        </mxCell>
        <mxCell id="ZMqYGbDEm_XaeI_KLQOW-44" style="edgeStyle=orthogonalEdgeStyle;rounded=0;orthogonalLoop=1;jettySize=auto;html=1;exitX=0;exitY=0.5;exitDx=0;exitDy=0;entryX=1;entryY=0.25;entryDx=0;entryDy=0;endArrow=none;endFill=0;" edge="1" parent="1" source="ZMqYGbDEm_XaeI_KLQOW-37" target="ZMqYGbDEm_XaeI_KLQOW-2">
          <mxGeometry relative="1" as="geometry" />
        </mxCell>
        <mxCell id="ZMqYGbDEm_XaeI_KLQOW-37" value="date of birth" style="ellipse;whiteSpace=wrap;html=1;" vertex="1" parent="1">
          <mxGeometry x="630" y="139.5" width="67" height="40" as="geometry" />
        </mxCell>
        <mxCell id="ZMqYGbDEm_XaeI_KLQOW-45" style="edgeStyle=orthogonalEdgeStyle;rounded=0;orthogonalLoop=1;jettySize=auto;html=1;exitX=0;exitY=0.5;exitDx=0;exitDy=0;entryX=1;entryY=0.75;entryDx=0;entryDy=0;endArrow=none;endFill=0;" edge="1" parent="1" source="ZMqYGbDEm_XaeI_KLQOW-38" target="ZMqYGbDEm_XaeI_KLQOW-2">
          <mxGeometry relative="1" as="geometry" />
        </mxCell>
        <mxCell id="ZMqYGbDEm_XaeI_KLQOW-38" value="website" style="ellipse;whiteSpace=wrap;html=1;" vertex="1" parent="1">
          <mxGeometry x="630" y="184.5" width="67" height="40" as="geometry" />
        </mxCell>
        <mxCell id="ZMqYGbDEm_XaeI_KLQOW-46" style="edgeStyle=orthogonalEdgeStyle;rounded=0;orthogonalLoop=1;jettySize=auto;html=1;exitX=0.5;exitY=0;exitDx=0;exitDy=0;entryX=0.833;entryY=1;entryDx=0;entryDy=0;entryPerimeter=0;endArrow=none;endFill=0;" edge="1" parent="1" source="ZMqYGbDEm_XaeI_KLQOW-39" target="ZMqYGbDEm_XaeI_KLQOW-2">
          <mxGeometry relative="1" as="geometry" />
        </mxCell>
        <mxCell id="ZMqYGbDEm_XaeI_KLQOW-39" value="phone number" style="ellipse;whiteSpace=wrap;html=1;" vertex="1" parent="1">
          <mxGeometry x="500" y="220" width="67" height="40" as="geometry" />
        </mxCell>
        <mxCell id="ZMqYGbDEm_XaeI_KLQOW-71" style="edgeStyle=orthogonalEdgeStyle;rounded=0;orthogonalLoop=1;jettySize=auto;html=1;exitX=0.5;exitY=0;exitDx=0;exitDy=0;entryX=0.5;entryY=1;entryDx=0;entryDy=0;endArrow=none;endFill=0;" edge="1" parent="1" source="ZMqYGbDEm_XaeI_KLQOW-47" target="ZMqYGbDEm_XaeI_KLQOW-4">
          <mxGeometry relative="1" as="geometry" />
        </mxCell>
        <mxCell id="ZMqYGbDEm_XaeI_KLQOW-47" value="name" style="ellipse;whiteSpace=wrap;html=1;" vertex="1" parent="1">
          <mxGeometry x="493.12" y="763" width="80" height="50" as="geometry" />
        </mxCell>
        <mxCell id="ZMqYGbDEm_XaeI_KLQOW-65" style="edgeStyle=orthogonalEdgeStyle;rounded=0;orthogonalLoop=1;jettySize=auto;html=1;exitX=1;exitY=0.5;exitDx=0;exitDy=0;entryX=0;entryY=0.5;entryDx=0;entryDy=0;endArrow=none;endFill=0;" edge="1" parent="1" source="ZMqYGbDEm_XaeI_KLQOW-48" target="ZMqYGbDEm_XaeI_KLQOW-51">
          <mxGeometry relative="1" as="geometry" />
        </mxCell>
        <mxCell id="ZMqYGbDEm_XaeI_KLQOW-48" value="address" style="ellipse;whiteSpace=wrap;html=1;" vertex="1" parent="1">
          <mxGeometry x="653.12" y="648" width="80" height="50" as="geometry" />
        </mxCell>
        <mxCell id="ZMqYGbDEm_XaeI_KLQOW-69" style="edgeStyle=orthogonalEdgeStyle;rounded=0;orthogonalLoop=1;jettySize=auto;html=1;exitX=0;exitY=0.5;exitDx=0;exitDy=0;entryX=1;entryY=0.5;entryDx=0;entryDy=0;endArrow=none;endFill=0;" edge="1" parent="1" source="ZMqYGbDEm_XaeI_KLQOW-49" target="ZMqYGbDEm_XaeI_KLQOW-48">
          <mxGeometry relative="1" as="geometry" />
        </mxCell>
        <mxCell id="ZMqYGbDEm_XaeI_KLQOW-49" value="street" style="ellipse;whiteSpace=wrap;html=1;" vertex="1" parent="1">
          <mxGeometry x="773.12" y="753" width="60" height="40" as="geometry" />
        </mxCell>
        <mxCell id="ZMqYGbDEm_XaeI_KLQOW-68" style="edgeStyle=orthogonalEdgeStyle;rounded=0;orthogonalLoop=1;jettySize=auto;html=1;exitX=0;exitY=0.5;exitDx=0;exitDy=0;entryX=1;entryY=0.5;entryDx=0;entryDy=0;endArrow=none;endFill=0;" edge="1" parent="1" source="ZMqYGbDEm_XaeI_KLQOW-50" target="ZMqYGbDEm_XaeI_KLQOW-48">
          <mxGeometry relative="1" as="geometry" />
        </mxCell>
        <mxCell id="ZMqYGbDEm_XaeI_KLQOW-50" value="city" style="ellipse;whiteSpace=wrap;html=1;" vertex="1" parent="1">
          <mxGeometry x="773.12" y="703" width="60" height="40" as="geometry" />
        </mxCell>
        <mxCell id="ZMqYGbDEm_XaeI_KLQOW-51" value="state" style="ellipse;whiteSpace=wrap;html=1;" vertex="1" parent="1">
          <mxGeometry x="773.12" y="653" width="60" height="40" as="geometry" />
        </mxCell>
        <mxCell id="ZMqYGbDEm_XaeI_KLQOW-67" style="edgeStyle=orthogonalEdgeStyle;rounded=0;orthogonalLoop=1;jettySize=auto;html=1;exitX=0;exitY=0.5;exitDx=0;exitDy=0;entryX=1;entryY=0.5;entryDx=0;entryDy=0;endArrow=none;endFill=0;" edge="1" parent="1" source="ZMqYGbDEm_XaeI_KLQOW-52" target="ZMqYGbDEm_XaeI_KLQOW-48">
          <mxGeometry relative="1" as="geometry" />
        </mxCell>
        <mxCell id="ZMqYGbDEm_XaeI_KLQOW-52" value="country" style="ellipse;whiteSpace=wrap;html=1;" vertex="1" parent="1">
          <mxGeometry x="773.12" y="603" width="60" height="40" as="geometry" />
        </mxCell>
        <mxCell id="ZMqYGbDEm_XaeI_KLQOW-66" style="edgeStyle=orthogonalEdgeStyle;rounded=0;orthogonalLoop=1;jettySize=auto;html=1;exitX=0;exitY=0.5;exitDx=0;exitDy=0;entryX=1;entryY=0.5;entryDx=0;entryDy=0;endArrow=none;endFill=0;" edge="1" parent="1" source="ZMqYGbDEm_XaeI_KLQOW-53" target="ZMqYGbDEm_XaeI_KLQOW-48">
          <mxGeometry relative="1" as="geometry" />
        </mxCell>
        <mxCell id="ZMqYGbDEm_XaeI_KLQOW-53" value="post code" style="ellipse;whiteSpace=wrap;html=1;" vertex="1" parent="1">
          <mxGeometry x="773.12" y="553" width="60" height="40" as="geometry" />
        </mxCell>
        <mxCell id="ZMqYGbDEm_XaeI_KLQOW-192" style="edgeStyle=orthogonalEdgeStyle;rounded=0;orthogonalLoop=1;jettySize=auto;html=1;exitX=0.5;exitY=1;exitDx=0;exitDy=0;entryX=0.5;entryY=0;entryDx=0;entryDy=0;endArrow=none;endFill=0;strokeWidth=1;fontSize=10;fontColor=#007FFF;" edge="1" parent="1" source="ZMqYGbDEm_XaeI_KLQOW-54" target="ZMqYGbDEm_XaeI_KLQOW-35">
          <mxGeometry relative="1" as="geometry">
            <Array as="points">
              <mxPoint x="366" y="54" />
              <mxPoint x="526" y="54" />
            </Array>
          </mxGeometry>
        </mxCell>
        <mxCell id="ZMqYGbDEm_XaeI_KLQOW-54" value="street" style="ellipse;whiteSpace=wrap;html=1;" vertex="1" parent="1">
          <mxGeometry x="335.62" y="10.5" width="60" height="40" as="geometry" />
        </mxCell>
        <mxCell id="ZMqYGbDEm_XaeI_KLQOW-193" style="edgeStyle=orthogonalEdgeStyle;rounded=0;orthogonalLoop=1;jettySize=auto;html=1;exitX=0.5;exitY=1;exitDx=0;exitDy=0;entryX=0.5;entryY=0;entryDx=0;entryDy=0;endArrow=none;endFill=0;strokeWidth=1;fontSize=10;fontColor=#007FFF;" edge="1" parent="1" source="ZMqYGbDEm_XaeI_KLQOW-55" target="ZMqYGbDEm_XaeI_KLQOW-35">
          <mxGeometry relative="1" as="geometry">
            <Array as="points">
              <mxPoint x="446" y="54" />
              <mxPoint x="526" y="54" />
            </Array>
          </mxGeometry>
        </mxCell>
        <mxCell id="ZMqYGbDEm_XaeI_KLQOW-55" value="city" style="ellipse;whiteSpace=wrap;html=1;" vertex="1" parent="1">
          <mxGeometry x="415.62" y="10.5" width="60" height="40" as="geometry" />
        </mxCell>
        <mxCell id="ZMqYGbDEm_XaeI_KLQOW-194" style="edgeStyle=orthogonalEdgeStyle;rounded=0;orthogonalLoop=1;jettySize=auto;html=1;exitX=0.5;exitY=1;exitDx=0;exitDy=0;entryX=0.5;entryY=0;entryDx=0;entryDy=0;endArrow=none;endFill=0;strokeWidth=1;fontSize=10;fontColor=#007FFF;" edge="1" parent="1" source="ZMqYGbDEm_XaeI_KLQOW-56" target="ZMqYGbDEm_XaeI_KLQOW-35">
          <mxGeometry relative="1" as="geometry" />
        </mxCell>
        <mxCell id="ZMqYGbDEm_XaeI_KLQOW-56" value="state" style="ellipse;whiteSpace=wrap;html=1;" vertex="1" parent="1">
          <mxGeometry x="495.62" y="10.5" width="60" height="40" as="geometry" />
        </mxCell>
        <mxCell id="ZMqYGbDEm_XaeI_KLQOW-195" style="edgeStyle=orthogonalEdgeStyle;rounded=0;orthogonalLoop=1;jettySize=auto;html=1;exitX=0.5;exitY=1;exitDx=0;exitDy=0;entryX=0.5;entryY=0;entryDx=0;entryDy=0;endArrow=none;endFill=0;strokeWidth=1;fontSize=10;fontColor=#007FFF;" edge="1" parent="1" source="ZMqYGbDEm_XaeI_KLQOW-57" target="ZMqYGbDEm_XaeI_KLQOW-35">
          <mxGeometry relative="1" as="geometry">
            <Array as="points">
              <mxPoint x="606" y="54" />
              <mxPoint x="526" y="54" />
            </Array>
          </mxGeometry>
        </mxCell>
        <mxCell id="ZMqYGbDEm_XaeI_KLQOW-57" value="country" style="ellipse;whiteSpace=wrap;html=1;" vertex="1" parent="1">
          <mxGeometry x="575.62" y="10.5" width="60" height="40" as="geometry" />
        </mxCell>
        <mxCell id="ZMqYGbDEm_XaeI_KLQOW-196" style="edgeStyle=orthogonalEdgeStyle;rounded=0;orthogonalLoop=1;jettySize=auto;html=1;exitX=0.5;exitY=1;exitDx=0;exitDy=0;endArrow=none;endFill=0;strokeWidth=1;fontSize=10;fontColor=#007FFF;entryX=0.5;entryY=0;entryDx=0;entryDy=0;" edge="1" parent="1" source="ZMqYGbDEm_XaeI_KLQOW-58" target="ZMqYGbDEm_XaeI_KLQOW-35">
          <mxGeometry relative="1" as="geometry">
            <mxPoint x="590" y="89.99999999999994" as="targetPoint" />
            <Array as="points">
              <mxPoint x="686" y="54" />
              <mxPoint x="526" y="54" />
            </Array>
          </mxGeometry>
        </mxCell>
        <mxCell id="ZMqYGbDEm_XaeI_KLQOW-58" value="postCode" style="ellipse;whiteSpace=wrap;html=1;" vertex="1" parent="1">
          <mxGeometry x="655.62" y="10.5" width="60" height="40" as="geometry" />
        </mxCell>
        <mxCell id="ZMqYGbDEm_XaeI_KLQOW-72" value="gps" style="ellipse;whiteSpace=wrap;html=1;" vertex="1" parent="1">
          <mxGeometry x="593.12" y="728" width="80" height="50" as="geometry" />
        </mxCell>
        <mxCell id="ZMqYGbDEm_XaeI_KLQOW-77" style="edgeStyle=orthogonalEdgeStyle;rounded=0;orthogonalLoop=1;jettySize=auto;html=1;exitX=1;exitY=0.5;exitDx=0;exitDy=0;entryX=0;entryY=0.5;entryDx=0;entryDy=0;endArrow=none;endFill=0;" edge="1" parent="1" source="ZMqYGbDEm_XaeI_KLQOW-75" target="ZMqYGbDEm_XaeI_KLQOW-4">
          <mxGeometry relative="1" as="geometry" />
        </mxCell>
        <mxCell id="ZMqYGbDEm_XaeI_KLQOW-75" value="Happen At" style="rhombus;whiteSpace=wrap;html=1;" vertex="1" parent="1">
          <mxGeometry x="328.12" y="640" width="70" height="65" as="geometry" />
        </mxCell>
        <mxCell id="ZMqYGbDEm_XaeI_KLQOW-139" style="edgeStyle=orthogonalEdgeStyle;rounded=0;orthogonalLoop=1;jettySize=auto;html=1;exitX=1;exitY=0.5;exitDx=0;exitDy=0;entryX=0;entryY=0.5;entryDx=0;entryDy=0;endArrow=none;endFill=0;" edge="1" parent="1" source="ZMqYGbDEm_XaeI_KLQOW-79" target="ZMqYGbDEm_XaeI_KLQOW-12">
          <mxGeometry relative="1" as="geometry" />
        </mxCell>
        <mxCell id="ZMqYGbDEm_XaeI_KLQOW-79" value="Public Event" style="rounded=0;whiteSpace=wrap;html=1;" vertex="1" parent="1">
          <mxGeometry x="114.5" y="500" width="90" height="35" as="geometry" />
        </mxCell>
        <mxCell id="ZMqYGbDEm_XaeI_KLQOW-80" value="Private Event" style="rounded=0;whiteSpace=wrap;html=1;" vertex="1" parent="1">
          <mxGeometry x="292" y="500" width="95" height="35" as="geometry" />
        </mxCell>
        <mxCell id="ZMqYGbDEm_XaeI_KLQOW-92" style="edgeStyle=orthogonalEdgeStyle;rounded=0;orthogonalLoop=1;jettySize=auto;html=1;exitX=0.5;exitY=1;exitDx=0;exitDy=0;entryX=0.5;entryY=0;entryDx=0;entryDy=0;endArrow=none;endFill=0;" edge="1" parent="1" source="ZMqYGbDEm_XaeI_KLQOW-90" target="ZMqYGbDEm_XaeI_KLQOW-79">
          <mxGeometry relative="1" as="geometry" />
        </mxCell>
        <mxCell id="ZMqYGbDEm_XaeI_KLQOW-94" style="edgeStyle=orthogonalEdgeStyle;rounded=0;orthogonalLoop=1;jettySize=auto;html=1;exitX=0;exitY=0.5;exitDx=0;exitDy=0;entryX=1;entryY=0.5;entryDx=0;entryDy=0;endArrow=none;endFill=0;" edge="1" parent="1" source="ZMqYGbDEm_XaeI_KLQOW-90" target="ZMqYGbDEm_XaeI_KLQOW-93">
          <mxGeometry relative="1" as="geometry" />
        </mxCell>
        <mxCell id="ZMqYGbDEm_XaeI_KLQOW-90" value="Attend" style="rhombus;whiteSpace=wrap;html=1;" vertex="1" parent="1">
          <mxGeometry x="129.5" y="398" width="60" height="50" as="geometry" />
        </mxCell>
        <mxCell id="ZMqYGbDEm_XaeI_KLQOW-93" value="email" style="ellipse;whiteSpace=wrap;html=1;" vertex="1" parent="1">
          <mxGeometry x="29.5" y="363" width="60" height="40" as="geometry" />
        </mxCell>
        <mxCell id="ZMqYGbDEm_XaeI_KLQOW-95" value="Invited?" style="ellipse;whiteSpace=wrap;html=1;" vertex="1" parent="1">
          <mxGeometry x="410.12" y="415" width="70" height="40" as="geometry" />
        </mxCell>
        <mxCell id="ZMqYGbDEm_XaeI_KLQOW-112" style="edgeStyle=orthogonalEdgeStyle;rounded=0;orthogonalLoop=1;jettySize=auto;html=1;exitX=1;exitY=0.5;exitDx=0;exitDy=0;entryX=0;entryY=0.25;entryDx=0;entryDy=0;endArrow=none;endFill=0;" edge="1" parent="1" source="ZMqYGbDEm_XaeI_KLQOW-97" target="ZMqYGbDEm_XaeI_KLQOW-3">
          <mxGeometry relative="1" as="geometry" />
        </mxCell>
        <mxCell id="ZMqYGbDEm_XaeI_KLQOW-97" value="title" style="ellipse;whiteSpace=wrap;html=1;" vertex="1" parent="1">
          <mxGeometry x="34.87" y="562" width="60" height="40" as="geometry" />
        </mxCell>
        <mxCell id="ZMqYGbDEm_XaeI_KLQOW-111" style="edgeStyle=orthogonalEdgeStyle;rounded=0;orthogonalLoop=1;jettySize=auto;html=1;exitX=1;exitY=0.5;exitDx=0;exitDy=0;entryX=0;entryY=0.5;entryDx=0;entryDy=0;endArrow=none;endFill=0;" edge="1" parent="1" source="ZMqYGbDEm_XaeI_KLQOW-98" target="ZMqYGbDEm_XaeI_KLQOW-3">
          <mxGeometry relative="1" as="geometry">
            <Array as="points">
              <mxPoint x="97.12" y="672" />
            </Array>
          </mxGeometry>
        </mxCell>
        <mxCell id="ZMqYGbDEm_XaeI_KLQOW-98" value="description" style="ellipse;whiteSpace=wrap;html=1;" vertex="1" parent="1">
          <mxGeometry x="37.12" y="622" width="60" height="40" as="geometry" />
        </mxCell>
        <mxCell id="ZMqYGbDEm_XaeI_KLQOW-110" style="edgeStyle=orthogonalEdgeStyle;rounded=0;orthogonalLoop=1;jettySize=auto;html=1;exitX=1;exitY=0;exitDx=0;exitDy=0;entryX=0;entryY=0.75;entryDx=0;entryDy=0;endArrow=none;endFill=0;" edge="1" parent="1" source="ZMqYGbDEm_XaeI_KLQOW-99" target="ZMqYGbDEm_XaeI_KLQOW-3">
          <mxGeometry relative="1" as="geometry" />
        </mxCell>
        <mxCell id="ZMqYGbDEm_XaeI_KLQOW-99" value="category" style="ellipse;whiteSpace=wrap;html=1;" vertex="1" parent="1">
          <mxGeometry x="37.12" y="682" width="60" height="40" as="geometry" />
        </mxCell>
        <mxCell id="ZMqYGbDEm_XaeI_KLQOW-161" style="edgeStyle=orthogonalEdgeStyle;rounded=0;orthogonalLoop=1;jettySize=auto;html=1;exitX=0.5;exitY=0;exitDx=0;exitDy=0;entryX=0.375;entryY=1;entryDx=0;entryDy=0;entryPerimeter=0;endArrow=none;endFill=0;strokeWidth=1;" edge="1" parent="1" source="ZMqYGbDEm_XaeI_KLQOW-102" target="ZMqYGbDEm_XaeI_KLQOW-3">
          <mxGeometry relative="1" as="geometry" />
        </mxCell>
        <mxCell id="ZMqYGbDEm_XaeI_KLQOW-102" value="start time" style="ellipse;whiteSpace=wrap;html=1;" vertex="1" parent="1">
          <mxGeometry x="141.62" y="792" width="60" height="40" as="geometry" />
        </mxCell>
        <mxCell id="ZMqYGbDEm_XaeI_KLQOW-162" style="edgeStyle=orthogonalEdgeStyle;rounded=0;orthogonalLoop=1;jettySize=auto;html=1;exitX=0.5;exitY=0;exitDx=0;exitDy=0;entryX=0.5;entryY=1;entryDx=0;entryDy=0;endArrow=none;endFill=0;strokeWidth=1;" edge="1" parent="1" source="ZMqYGbDEm_XaeI_KLQOW-104" target="ZMqYGbDEm_XaeI_KLQOW-3">
          <mxGeometry relative="1" as="geometry" />
        </mxCell>
        <mxCell id="ZMqYGbDEm_XaeI_KLQOW-104" value="end time" style="ellipse;whiteSpace=wrap;html=1;" vertex="1" parent="1">
          <mxGeometry x="212.12" y="792" width="60" height="40" as="geometry" />
        </mxCell>
        <mxCell id="ZMqYGbDEm_XaeI_KLQOW-116" style="edgeStyle=orthogonalEdgeStyle;rounded=0;orthogonalLoop=1;jettySize=auto;html=1;exitX=1;exitY=0.5;exitDx=0;exitDy=0;entryX=0.5;entryY=1;entryDx=0;entryDy=0;endArrow=none;endFill=0;" edge="1" parent="1" source="ZMqYGbDEm_XaeI_KLQOW-114" target="ZMqYGbDEm_XaeI_KLQOW-80">
          <mxGeometry relative="1" as="geometry" />
        </mxCell>
        <mxCell id="ZMqYGbDEm_XaeI_KLQOW-117" style="edgeStyle=orthogonalEdgeStyle;rounded=0;orthogonalLoop=1;jettySize=auto;html=1;exitX=0;exitY=0.5;exitDx=0;exitDy=0;entryX=0.5;entryY=1;entryDx=0;entryDy=0;endArrow=none;endFill=0;" edge="1" parent="1" source="ZMqYGbDEm_XaeI_KLQOW-114" target="ZMqYGbDEm_XaeI_KLQOW-79">
          <mxGeometry relative="1" as="geometry" />
        </mxCell>
        <mxCell id="ZMqYGbDEm_XaeI_KLQOW-114" value="d" style="ellipse;whiteSpace=wrap;html=1;aspect=fixed;" vertex="1" parent="1">
          <mxGeometry x="227.12" y="572" width="30" height="30" as="geometry" />
        </mxCell>
        <mxCell id="ZMqYGbDEm_XaeI_KLQOW-121" style="edgeStyle=orthogonalEdgeStyle;rounded=0;orthogonalLoop=1;jettySize=auto;html=1;exitX=0.5;exitY=0;exitDx=0;exitDy=0;entryX=0;entryY=0.5;entryDx=0;entryDy=0;endArrow=none;endFill=0;" edge="1" parent="1" source="ZMqYGbDEm_XaeI_KLQOW-119" target="ZMqYGbDEm_XaeI_KLQOW-2">
          <mxGeometry relative="1" as="geometry" />
        </mxCell>
        <mxCell id="ZMqYGbDEm_XaeI_KLQOW-122" style="edgeStyle=orthogonalEdgeStyle;rounded=0;orthogonalLoop=1;jettySize=auto;html=1;exitX=0.5;exitY=1;exitDx=0;exitDy=0;entryX=0.5;entryY=0;entryDx=0;entryDy=0;endArrow=none;endFill=0;" edge="1" parent="1" source="ZMqYGbDEm_XaeI_KLQOW-119" target="ZMqYGbDEm_XaeI_KLQOW-5">
          <mxGeometry relative="1" as="geometry" />
        </mxCell>
        <mxCell id="ZMqYGbDEm_XaeI_KLQOW-119" value="o" style="ellipse;whiteSpace=wrap;html=1;aspect=fixed;" vertex="1" parent="1">
          <mxGeometry x="325.5" y="220" width="30" height="30" as="geometry" />
        </mxCell>
        <mxCell id="ZMqYGbDEm_XaeI_KLQOW-124" value="eventID" style="ellipse;whiteSpace=wrap;html=1;fontStyle=4" vertex="1" parent="1">
          <mxGeometry x="66.62" y="736" width="60" height="40" as="geometry" />
        </mxCell>
        <mxCell id="ZMqYGbDEm_XaeI_KLQOW-126" value="placeID" style="ellipse;whiteSpace=wrap;html=1;fontStyle=4" vertex="1" parent="1">
          <mxGeometry x="420.12" y="733" width="60" height="40" as="geometry" />
        </mxCell>
        <mxCell id="ZMqYGbDEm_XaeI_KLQOW-129" value="registered" style="ellipse;whiteSpace=wrap;html=1;align=center;dashed=1;" vertex="1" parent="1">
          <mxGeometry x="578.69" y="238" width="76.5" height="40" as="geometry" />
        </mxCell>
        <mxCell id="ZMqYGbDEm_XaeI_KLQOW-131" value="Derived from whether an email and password has been provided or not" style="text;html=1;strokeColor=none;fillColor=none;align=center;verticalAlign=middle;whiteSpace=wrap;rounded=0;fontStyle=2;fontSize=10;" vertex="1" parent="1">
          <mxGeometry x="559.6800000000001" y="268" width="126.88" height="70" as="geometry" />
        </mxCell>
        <mxCell id="ZMqYGbDEm_XaeI_KLQOW-132" value="Nickname that can be shown on ev.org website instead of name" style="text;html=1;strokeColor=none;fillColor=none;align=center;verticalAlign=middle;whiteSpace=wrap;rounded=0;fontStyle=2;fontSize=10;" vertex="1" parent="1">
          <mxGeometry x="703" y="84.5" width="100" height="65" as="geometry" />
        </mxCell>
        <mxCell id="ZMqYGbDEm_XaeI_KLQOW-135" style="edgeStyle=orthogonalEdgeStyle;rounded=0;orthogonalLoop=1;jettySize=auto;html=1;exitX=1;exitY=0.5;exitDx=0;exitDy=0;entryX=0;entryY=0.5;entryDx=0;entryDy=0;endArrow=none;endFill=0;" edge="1" parent="1" source="ZMqYGbDEm_XaeI_KLQOW-134" target="ZMqYGbDEm_XaeI_KLQOW-90">
          <mxGeometry relative="1" as="geometry">
            <Array as="points">
              <mxPoint x="110" y="463" />
              <mxPoint x="110" y="423" />
            </Array>
          </mxGeometry>
        </mxCell>
        <mxCell id="ZMqYGbDEm_XaeI_KLQOW-134" value="registered" style="ellipse;whiteSpace=wrap;html=1;align=center;dashed=1;" vertex="1" parent="1">
          <mxGeometry x="21.25" y="443" width="76.5" height="40" as="geometry" />
        </mxCell>
        <mxCell id="ZMqYGbDEm_XaeI_KLQOW-136" value="Derived from &lt;br style=&quot;font-size: 10px;&quot;&gt;whether an email &lt;br style=&quot;font-size: 10px;&quot;&gt;&lt;div style=&quot;font-size: 10px;&quot;&gt;&lt;span style=&quot;font-size: 10px;&quot;&gt;has been provided&lt;/span&gt;&lt;/div&gt;" style="text;html=1;strokeColor=none;fillColor=none;align=left;verticalAlign=middle;whiteSpace=wrap;rounded=0;fontStyle=2;fontSize=10;" vertex="1" parent="1">
          <mxGeometry x="16.62" y="480" width="160" height="52.5" as="geometry" />
        </mxCell>
        <mxCell id="ZMqYGbDEm_XaeI_KLQOW-165" style="edgeStyle=orthogonalEdgeStyle;rounded=0;orthogonalLoop=1;jettySize=auto;html=1;exitX=0.5;exitY=1;exitDx=0;exitDy=0;entryX=0.5;entryY=0;entryDx=0;entryDy=0;endArrow=none;endFill=0;strokeWidth=1;" edge="1" parent="1" source="ZMqYGbDEm_XaeI_KLQOW-143" target="ZMqYGbDEm_XaeI_KLQOW-164">
          <mxGeometry relative="1" as="geometry" />
        </mxCell>
        <mxCell id="ZMqYGbDEm_XaeI_KLQOW-143" value="d" style="ellipse;whiteSpace=wrap;html=1;aspect=fixed;" vertex="1" parent="1">
          <mxGeometry x="303.62" y="832" width="30" height="30" as="geometry" />
        </mxCell>
        <mxCell id="ZMqYGbDEm_XaeI_KLQOW-148" style="edgeStyle=orthogonalEdgeStyle;rounded=0;orthogonalLoop=1;jettySize=auto;html=1;exitX=0.5;exitY=0;exitDx=0;exitDy=0;entryX=0;entryY=0.5;entryDx=0;entryDy=0;endArrow=none;endFill=0;" edge="1" parent="1" source="ZMqYGbDEm_XaeI_KLQOW-145" target="ZMqYGbDEm_XaeI_KLQOW-143">
          <mxGeometry relative="1" as="geometry" />
        </mxCell>
        <mxCell id="ZMqYGbDEm_XaeI_KLQOW-167" style="edgeStyle=orthogonalEdgeStyle;rounded=0;orthogonalLoop=1;jettySize=auto;html=1;exitX=0.5;exitY=1;exitDx=0;exitDy=0;entryX=0.5;entryY=0;entryDx=0;entryDy=0;endArrow=none;endFill=0;strokeWidth=1;" edge="1" parent="1" source="ZMqYGbDEm_XaeI_KLQOW-145" target="ZMqYGbDEm_XaeI_KLQOW-166">
          <mxGeometry relative="1" as="geometry" />
        </mxCell>
        <mxCell id="ZMqYGbDEm_XaeI_KLQOW-145" value="One Day Event" style="rounded=0;whiteSpace=wrap;html=1;" vertex="1" parent="1">
          <mxGeometry x="133.12" y="905" width="70" height="50" as="geometry" />
        </mxCell>
        <mxCell id="ZMqYGbDEm_XaeI_KLQOW-149" style="edgeStyle=orthogonalEdgeStyle;rounded=0;orthogonalLoop=1;jettySize=auto;html=1;exitX=0.5;exitY=0;exitDx=0;exitDy=0;entryX=1;entryY=0.5;entryDx=0;entryDy=0;endArrow=none;endFill=0;" edge="1" parent="1" source="ZMqYGbDEm_XaeI_KLQOW-146" target="ZMqYGbDEm_XaeI_KLQOW-143">
          <mxGeometry relative="1" as="geometry" />
        </mxCell>
        <mxCell id="ZMqYGbDEm_XaeI_KLQOW-154" style="edgeStyle=orthogonalEdgeStyle;rounded=0;orthogonalLoop=1;jettySize=auto;html=1;exitX=1;exitY=0.5;exitDx=0;exitDy=0;entryX=0;entryY=0.5;entryDx=0;entryDy=0;endArrow=none;endFill=0;strokeWidth=1;" edge="1" parent="1" source="ZMqYGbDEm_XaeI_KLQOW-146">
          <mxGeometry relative="1" as="geometry">
            <mxPoint x="533.12" y="870" as="targetPoint" />
          </mxGeometry>
        </mxCell>
        <mxCell id="ZMqYGbDEm_XaeI_KLQOW-146" value="Recurring Event" style="rounded=0;whiteSpace=wrap;html=1;" vertex="1" parent="1">
          <mxGeometry x="422.12" y="910" width="70" height="50" as="geometry" />
        </mxCell>
        <mxCell id="ZMqYGbDEm_XaeI_KLQOW-153" value="ntimes" style="ellipse;whiteSpace=wrap;html=1;" vertex="1" parent="1">
          <mxGeometry x="533.12" y="856" width="60" height="40" as="geometry" />
        </mxCell>
        <mxCell id="ZMqYGbDEm_XaeI_KLQOW-164" value="Spanning Event" style="rounded=0;whiteSpace=wrap;html=1;" vertex="1" parent="1">
          <mxGeometry x="283.62" y="905" width="70" height="50" as="geometry" />
        </mxCell>
        <mxCell id="ZMqYGbDEm_XaeI_KLQOW-166" value="date" style="ellipse;whiteSpace=wrap;html=1;" vertex="1" parent="1">
          <mxGeometry x="138.12" y="990" width="60" height="40" as="geometry" />
        </mxCell>
        <mxCell id="ZMqYGbDEm_XaeI_KLQOW-170" style="edgeStyle=orthogonalEdgeStyle;rounded=0;orthogonalLoop=1;jettySize=auto;html=1;exitX=0.5;exitY=0;exitDx=0;exitDy=0;entryX=0.5;entryY=1;entryDx=0;entryDy=0;endArrow=none;endFill=0;strokeWidth=1;" edge="1" parent="1" source="ZMqYGbDEm_XaeI_KLQOW-168" target="ZMqYGbDEm_XaeI_KLQOW-164">
          <mxGeometry relative="1" as="geometry" />
        </mxCell>
        <mxCell id="ZMqYGbDEm_XaeI_KLQOW-168" value="start date" style="ellipse;whiteSpace=wrap;html=1;" vertex="1" parent="1">
          <mxGeometry x="249.12" y="990" width="60" height="40" as="geometry" />
        </mxCell>
        <mxCell id="ZMqYGbDEm_XaeI_KLQOW-171" style="edgeStyle=orthogonalEdgeStyle;rounded=0;orthogonalLoop=1;jettySize=auto;html=1;exitX=0.5;exitY=0;exitDx=0;exitDy=0;entryX=0.5;entryY=1;entryDx=0;entryDy=0;endArrow=none;endFill=0;strokeWidth=1;" edge="1" parent="1" source="ZMqYGbDEm_XaeI_KLQOW-169" target="ZMqYGbDEm_XaeI_KLQOW-164">
          <mxGeometry relative="1" as="geometry" />
        </mxCell>
        <mxCell id="ZMqYGbDEm_XaeI_KLQOW-169" value="end date" style="ellipse;whiteSpace=wrap;html=1;" vertex="1" parent="1">
          <mxGeometry x="321.62" y="990" width="60" height="40" as="geometry" />
        </mxCell>
        <mxCell id="ZMqYGbDEm_XaeI_KLQOW-175" style="edgeStyle=orthogonalEdgeStyle;rounded=0;orthogonalLoop=1;jettySize=auto;html=1;exitX=0;exitY=0.5;exitDx=0;exitDy=0;endArrow=none;endFill=0;strokeWidth=1;" edge="1" parent="1" source="ZMqYGbDEm_XaeI_KLQOW-172">
          <mxGeometry relative="1" as="geometry">
            <mxPoint x="490.12" y="935.5714285714289" as="targetPoint" />
          </mxGeometry>
        </mxCell>
        <mxCell id="ZMqYGbDEm_XaeI_KLQOW-172" value="start date" style="ellipse;whiteSpace=wrap;html=1;" vertex="1" parent="1">
          <mxGeometry x="533.12" y="915" width="60" height="40" as="geometry" />
        </mxCell>
        <mxCell id="ZMqYGbDEm_XaeI_KLQOW-176" style="edgeStyle=orthogonalEdgeStyle;rounded=0;orthogonalLoop=1;jettySize=auto;html=1;exitX=0;exitY=0.5;exitDx=0;exitDy=0;entryX=1;entryY=0.5;entryDx=0;entryDy=0;endArrow=none;endFill=0;strokeWidth=1;" edge="1" parent="1" source="ZMqYGbDEm_XaeI_KLQOW-173" target="ZMqYGbDEm_XaeI_KLQOW-146">
          <mxGeometry relative="1" as="geometry" />
        </mxCell>
        <mxCell id="ZMqYGbDEm_XaeI_KLQOW-173" value="end date" style="ellipse;whiteSpace=wrap;html=1;" vertex="1" parent="1">
          <mxGeometry x="533.12" y="980" width="60" height="40" as="geometry" />
        </mxCell>
        <mxCell id="ZMqYGbDEm_XaeI_KLQOW-182" style="edgeStyle=orthogonalEdgeStyle;rounded=0;orthogonalLoop=1;jettySize=auto;html=1;exitX=0.5;exitY=0;exitDx=0;exitDy=0;entryX=0.5;entryY=1;entryDx=0;entryDy=0;endArrow=none;endFill=0;strokeWidth=1;" edge="1" parent="1" source="ZMqYGbDEm_XaeI_KLQOW-181" target="ZMqYGbDEm_XaeI_KLQOW-146">
          <mxGeometry relative="1" as="geometry" />
        </mxCell>
        <mxCell id="ZMqYGbDEm_XaeI_KLQOW-181" value="recurrence type" style="ellipse;whiteSpace=wrap;html=1;" vertex="1" parent="1">
          <mxGeometry x="418.62" y="1000" width="77" height="50" as="geometry" />
        </mxCell>
        <mxCell id="ZMqYGbDEm_XaeI_KLQOW-183" value="Type will be daily, weekly &lt;br&gt;or monthly" style="text;html=1;strokeColor=none;fillColor=none;align=center;verticalAlign=middle;whiteSpace=wrap;rounded=0;fontStyle=2" vertex="1" parent="1">
          <mxGeometry x="390.12" y="1050" width="143" height="50" as="geometry" />
        </mxCell>
      </root>
    </mxGraphModel>
  </diagram>
</mxfile>
